Results
version=1
nRows=26
nColumns=24
inDegrees=yes

Units are S.I. units (second, meters, Newtons, ...)
Angles are in degrees.

endheader
time	pelvis_tilt	pelvis_list	pelvis_rotation	pelvis_tx	pelvis_ty	pelvis_tz	hip_flexion_r	hip_adduction_r	hip_rotation_r	knee_angle_r	ankle_angle_r	subtalar_angle_r	mtp_angle_r	hip_flexion_l	hip_adduction_l	hip_rotation_l	knee_angle_l	ankle_angle_l	subtalar_angle_l	mtp_angle_l	lumbar_extension	lumbar_bending	lumbar_rotation
      0.09423261	     -0.98159155	     -1.31437568	      5.34644088	      0.00156565	      0.78578385	     -0.00618779	     18.58565355	     10.68894711	     10.56568349	    -59.65939631	    -10.61744669	      7.84217368	    203.61445214	     52.33300648	     -0.84943163	     14.44139444	    -48.73086766	     -3.44217752	      4.35338341	     84.03184177	    -19.23105805	      2.24468721	     -5.21697127
      0.09446037	     -0.97570399	     -1.30806866	      5.35183924	      0.00157500	      0.78559732	     -0.00620521	     18.57250928	     10.66616594	     10.53166690	    -59.63291729	    -10.66725847	      7.82846563	    203.95584903	     52.31433366	     -0.84231475	     14.44080080	    -48.70810603	     -3.46725768	      4.35698582	     84.23285085	    -19.23644601	      2.24088360	     -5.22210300
      0.09468813	     -0.96982649	     -1.30175742	      5.35721593	      0.00158437	      0.78541028	     -0.00622260	     18.55935555	     10.64337765	     10.49761128	    -59.60642996	    -10.71687075	      7.81455808	    204.29524447	     52.29565974	     -0.83522431	     14.44015952	    -48.68533172	     -3.49231573	      4.36061521	     84.43391488	    -19.24181935	      2.23707017	     -5.22721388
      0.09491589	     -0.96395905	     -1.29544212	      5.36257083	      0.00159376	      0.78522271	     -0.00623996	     18.54619242	     10.62058256	     10.46351708	    -59.57993434	    -10.76628273	      7.80045363	    204.63264419	     52.27698483	     -0.82816053	     14.43947046	    -48.66254486	     -3.51735149	      4.36427096	     84.63503668	    -19.24717806	      2.23324703	     -5.23230373
      0.09514365	     -0.95810169	     -1.28912262	      5.36790388	      0.00160318	      0.78503462	     -0.00625730	     18.53301991	     10.59778052	     10.42938447	    -59.55343050	    -10.81549345	      7.78615504	    204.96805398	     52.25830888	     -0.82112332	     14.43873337	    -48.63974544	     -3.54236493	      4.36795225	     84.83621902	    -19.25252214	      2.22941403	     -5.23737257
      0.09537141	     -0.95225442	     -1.28279909	      5.37321497	      0.00161263	      0.78484601	     -0.00627461	     18.51983808	     10.57497183	     10.39521392	    -59.52691848	    -10.86450210	      7.77166486	    205.30147957	     52.23963199	     -0.81411288	     14.43794810	    -48.61693360	     -3.56735589	      4.37165844	     85.03746467	    -19.25785157	      2.22557128	     -5.24242025
      0.09559917	     -0.94641726	     -1.27647137	      5.37850406	      0.00162210	      0.78465688	     -0.00629190	     18.50664698	     10.55215633	     10.36100558	    -59.50039836	    -10.91330776	      7.75698580	    205.63292672	     52.22095415	     -0.80712911	     14.43711441	    -48.59410932	     -3.59232433	      4.37538868	     85.23877639	    -19.26316634	      2.22171860	     -5.24744678
      0.09582693	     -0.94059023	     -1.27013964	      5.38377100	      0.00163160	      0.78446722	     -0.00630915	     18.49344666	     10.52933436	     10.32675993	    -59.47387016	    -10.96190967	      7.74212037	    205.96240113	     52.20227546	     -0.80017224	     14.43623216	    -48.57127273	     -3.61727007	      4.37914235	     85.44015692	    -19.26846641	      2.21785613	     -5.25245200
      0.09605469	     -0.93477335	     -1.26380374	      5.38901577	      0.00164112	      0.78427704	     -0.00632638	     18.48023718	     10.50650575	     10.29247712	    -59.44733397	    -11.01030691	      7.72707122	    206.28990854	     52.18359588	     -0.79324216	     14.43530109	    -48.54842384	     -3.64219307	      4.38291860	     85.64160897	    -19.27375179	      2.21398368	     -5.25743593
      0.09628245	     -0.92896664	     -1.25746383	      5.39423824	      0.00165067	      0.78408634	     -0.00634359	     18.46701861	     10.48367081	     10.25815762	    -59.42078983	    -11.05849874	      7.71184082	    206.61545462	     52.16491555	     -0.78633907	     14.43432105	    -48.52556276	     -3.66709315	      4.38671677	     85.84313525	    -19.27902243	      2.21010137	     -5.26239840
      0.09651022	     -0.92317011	     -1.25111974	      5.39943837	      0.00166024	      0.78389512	     -0.00636076	     18.45379098	     10.46082933	     10.22380154	    -59.39423782	    -11.10648426	      7.69643179	    206.93904509	     52.14623440	     -0.77946284	     14.43329181	    -48.50268948	     -3.69197028	      4.39053599	     86.04473844	    -19.28427835	      2.20620901	     -5.26733946
      0.09673798	     -0.91738382	     -1.24477168	      5.40461601	      0.00166984	      0.78370337	     -0.00637791	     18.44055439	     10.43798173	     10.18940940	    -59.36767799	    -11.15426279	      7.68084652	    207.26068557	     52.12755259	     -0.77261376	     14.43221321	    -48.47980415	     -3.71682424	      4.39437566	     86.24642121	    -19.28951947	      2.20230675	     -5.27225892
      0.09696574	     -0.91160775	     -1.23841951	      5.40977114	      0.00167946	      0.78351110	     -0.00639503	     18.42730887	     10.41512785	     10.15498136	    -59.34111040	    -11.20183348	      7.66508757	    207.58038173	     52.10887010	     -0.76579170	     14.43108503	    -48.45690678	     -3.74165498	      4.39823489	     86.44818618	    -19.29474580	      2.19839443	     -5.27715678
      0.09719350	     -0.90584196	     -1.23206331	      5.41490364	      0.00168911	      0.78331831	     -0.00641212	     18.41405451	     10.39226788	     10.12051778	    -59.31453512	    -11.24919560	      7.64915734	    207.89813919	     52.09018698	     -0.75899680	     14.42990709	    -48.43399745	     -3.76646234	      4.40211299	     86.65003597	    -19.29995731	      2.19447210	     -5.28203294
      0.09742126	     -0.90008643	     -1.22570296	      5.42001347	      0.00169878	      0.78312499	     -0.00642918	     18.40079133	     10.36940166	     10.08601883	    -59.28795224	    -11.29634832	      7.63305833	    208.21396354	     52.07150324	     -0.75222896	     14.42867916	    -48.41107618	     -3.79124625	      4.40600909	     86.85197316	    -19.30515399	      2.19053960	     -5.28688741
      0.09764902	     -0.89434123	     -1.21933867	      5.42510050	      0.00170848	      0.78293115	     -0.00644622	     18.38751944	     10.34652964	     10.05148501	    -59.26136177	    -11.34329103	      7.61679283	    208.52786037	     52.05281901	     -0.74548847	     14.42740111	    -48.38814311	     -3.81600648	      4.40992259	     87.05400032	    -19.31033578	      2.18659709	     -5.29172000
      0.09787678	     -0.88860635	     -1.21297025	      5.43016469	      0.00171821	      0.78273678	     -0.00646322	     18.37423888	     10.32365158	     10.01691643	    -59.23476383	    -11.39002290	      7.60036333	    208.83983523	     52.03413425	     -0.73877515	     14.42607270	    -48.36519823	     -3.84074298	      4.41385258	     87.25611996	    -19.31550270	      2.18264438	     -5.29653075
      0.09810454	     -0.88288183	     -1.20659790	      5.43520592	      0.00172796	      0.78254190	     -0.00648020	     18.36094973	     10.30076784	      9.98231354	    -59.20815844	    -11.43654331	      7.58377208	    209.14989365	     52.01544908	     -0.73208927	     14.42469379	    -48.34224167	     -3.86545553	      4.41779842	     87.45833460	    -19.32065469	      2.17868161	     -5.30131950
      0.09833230	     -0.87716767	     -1.20022141	      5.44022417	      0.00173773	      0.78234649	     -0.00649715	     18.34765202	     10.27787813	      9.94767642	    -59.18154571	    -11.48285147	      7.56702153	    209.45804114	     51.99676344	     -0.72543061	     14.42326412	    -48.31927342	     -3.89014409	      4.42175918	     87.66064666	    -19.32579176	      2.17470854	     -5.30608630
      0.09856006	     -0.87146393	     -1.19384104	      5.44521928	      0.00174753	      0.78215055	     -0.00651407	     18.33434586	     10.25498300	      9.91300561	    -59.15492567	    -11.52894682	      7.55011384	    209.76428320	     51.97807751	     -0.71879952	     14.42178360	    -48.29629364	     -3.91480839	      4.42573430	     87.86305862	    -19.33091383	      2.17072540	     -5.31083095
      0.09878783	     -0.86577062	     -1.18745678	      5.45019119	      0.00175736	      0.78195410	     -0.00653096	     18.32103132	     10.23208246	      9.87830138	    -59.12829838	    -11.57482870	      7.53305131	    210.06862528	     51.95939131	     -0.71219602	     14.42025202	    -48.27330238	     -3.93944829	      4.42972300	     88.06557285	    -19.33602090	      2.16673214	     -5.31555337
      0.09901559	     -0.86008774	     -1.18106838	      5.45513990	      0.00176721	      0.78175711	     -0.00654783	     18.30770842	     10.20917615	      9.84356373	    -59.10166396	    -11.62049631	      7.51583635	    210.37107282	     51.94070477	     -0.70561986	     14.41866914	    -48.25029962	     -3.96406375	      4.43372431	     88.26819168	    -19.34111299	      2.16272849	     -5.32025368
      0.09924335	     -0.85441534	     -1.17467615	      5.46006525	      0.00177708	      0.78155961	     -0.00656466	     18.29437726	     10.18626469	      9.80879324	    -59.07502242	    -11.66594917	      7.49847101	    210.67163125	     51.92201806	     -0.69907143	     14.41703485	    -48.22728554	     -3.98865449	      4.43773770	     88.47091746	    -19.34619001	      2.15871473	     -5.32493163
      0.09949460	     -0.84817007	     -1.16762026	      5.46547139	      0.00178801	      0.78134113	     -0.00658320	     18.27966163	     10.16098429	      9.77039878	    -59.04562486	    -11.71584029	      7.47914279	    211.00100478	     51.90140388	     -0.69187986	     14.41517218	    -48.20188471	     -4.01575264	      4.44217819	     88.69467949	    -19.35177316	      2.15427526	     -5.33006600
      0.09974585	     -0.84193744	     -1.16055804	      5.47084939	      0.00179896	      0.78112200	     -0.00660170	     18.26493582	     10.13569490	      9.73196336	    -59.01621905	    -11.76546759	      7.45963816	    211.32809316	     51.88078883	     -0.68472024	     14.41324601	    -48.17646963	     -4.04282103	      4.44663007	     88.91857714	    -19.35733826	      2.14982183	     -5.33517404
      0.10023447	     -0.82985289	     -1.14680554	      5.48122731	      0.00182036	      0.78069405	     -0.00663759	     18.23626914	     10.08648781	      9.65710031	    -58.95900924	    -11.86122114	      7.42121278	    211.95767811	     51.84069557	     -0.67088804	     14.40931741	    -48.12700334	     -4.09537599	      4.45531641	     89.35439856	    -19.36810916	      2.14112071	     -5.34503227
